<svg width="10" height="12" viewBox="0 0 10 12" fill="none" xmlns="http://www.w3.org/2000/svg">
<path d="M2.67857 5.57143V3.96429C2.67857 2.78404 3.64118 1.82143 4.82143 1.82143C6.00167 1.82143 6.96429 2.78404 6.96429 3.96429V5.57143H2.67857ZM9.64286 6.375C9.64286 5.93136 9.28292 5.57143 8.83929 5.57143H8.57143V3.96429C8.57143 1.90513 6.88058 0.214285 4.82143 0.214285C2.76228 0.214285 1.07143 1.90513 1.07143 3.96429V5.57143H0.803571C0.359933 5.57143 0 5.93136 0 6.375V11.1964C0 11.6401 0.359933 12 0.803571 12H8.83929C9.28292 12 9.64286 11.6401 9.64286 11.1964V6.375Z" fill="#E06B1F"/>
</svg>
