<svg width="12" height="14" viewBox="0 0 12 14" fill="none" xmlns="http://www.w3.org/2000/svg">
<path d="M11.622 10.8532C11.622 8.65179 11.0779 6.10714 8.88484 6.10714C8.20682 6.76841 7.28606 7.17857 6.26486 7.17857C5.24365 7.17857 4.32289 6.76841 3.64488 6.10714C1.4518 6.10714 0.907715 8.65179 0.907715 10.8532C0.907715 12.0753 1.71129 13.0714 2.69064 13.0714H9.83908C10.8184 13.0714 11.622 12.0753 11.622 10.8532ZM9.47914 3.42857C9.47914 1.65402 8.03941 0.214285 6.26486 0.214285C4.4903 0.214285 3.05057 1.65402 3.05057 3.42857C3.05057 5.20312 4.4903 6.64286 6.26486 6.64286C8.03941 6.64286 9.47914 5.20312 9.47914 3.42857Z" fill="#E06B1F"/>
</svg>
